<?xml version="1.0" encoding="utf-8"?>
<!-- Generator: Adobe Illustrator 28.3.0, SVG Export Plug-In . SVG Version: 6.00 Build 0)  -->
<svg version="1.1" id="Layer_1" xmlns="http://www.w3.org/2000/svg" xmlns:xlink="http://www.w3.org/1999/xlink" x="0px" y="0px"
	 viewBox="0 0 512 512" style="enable-background:new 0 0 512 512;" xml:space="preserve">
<style type="text/css">
	.st0{fill:#EBEFE4;}
</style>
<g>
	<path class="st0" d="M25.49,139.48c0,0,74.3,59.11,81.06,227.98c0,0,86.13,52.35,148.61,143.54c0,0,118.21-165.5-140.17-510
		c0,0,91.19,135.1,64.17,300.6C179.16,301.6,157.21,203.65,25.49,139.48z"/>
	<path class="st0" d="M282.14,200.27c0,0,20.3,47.28,33.81,92.88c0,0,11.82-35.46,18.58-92.88S400.39,1,400.39,1
		S309.13,98.95,282.14,200.27z"/>
	<path class="st0" d="M341.27,435.01c0,0-5.05-187.45,145.25-287.93c0,0-69.27,70.08-72.63,211.94L341.27,435.01z"/>
</g>
</svg>
