<?xml version="1.0" encoding="utf-8"?>
<!-- Generator: Adobe Illustrator 28.3.0, SVG Export Plug-In . SVG Version: 6.00 Build 0)  -->
<svg version="1.1" id="Layer_1" xmlns="http://www.w3.org/2000/svg" xmlns:xlink="http://www.w3.org/1999/xlink" x="0px" y="0px"
	 viewBox="0 0 512 512" style="enable-background:new 0 0 512 512;" xml:space="preserve">
<style type="text/css">
	.st0{fill:#EBEFE4;}
</style>
<g>
	<path class="st0" d="M0.83,135.32h164.82l40.53,40.53l-28.82,110.78l-73.85-33.32l45.03-59.44l-54.94-1.8
		C93.6,192.06,32.35,174.05,0.83,135.32z"/>
	<path class="st0" d="M510.83,135.32H346.01l-40.53,40.53l28.82,110.78l73.85-33.32l-45.03-59.44l54.94-1.8
		C418.07,192.06,479.31,174.05,510.83,135.32z"/>
	<polygon class="st0" points="193.57,43.46 176.46,69.58 253.91,155.14 331.37,69.58 314.26,43.46 255.71,43.46 	"/>
	<polygon class="st0" points="256.84,211.71 269.89,200.32 317.3,423.3 256.84,467.88 196.38,423.3 243.79,200.32 	"/>
</g>
</svg>
